<svg xmlns="http://www.w3.org/2000/svg" viewBox="0 0 512 512">
<defs>
<linearGradient id="t" x1="0" y1="0" x2="0" y2="1"><stop offset="0" stop-color="#262626"/><stop offset="1" stop-color="#0A0A0A"/></linearGradient>
<radialGradient id="g" cx="8" cy="15" r="8" gradientUnits="userSpaceOnUse"><stop offset="0" stop-color="#F59E4C" stop-opacity=".55"/><stop offset="1" stop-color="#F59E4C" stop-opacity="0"/></radialGradient>
</defs>
<rect width="512" height="512" rx="112" fill="url(#t)"/>
<g transform="translate(64 58) scale(24)">
<path d="M2.5 14.5V7.5a5.5 5.5 0 0 1 11 0v7z" fill="url(#g)" stroke="#FAFAFA" stroke-width="1.5" stroke-linejoin="round"/>
<path d="M8 13c-1.5 0-2.4-.9-2.4-2.1 0-1.4 1.3-2 1.5-3.4 1 .7 1.4 1.6 1.3 2.4.4-.2.7-.7.8-1.1.8.6 1.2 1.4 1.2 2.1C10.4 12.1 9.4 13 8 13z" fill="#F59E4C"/>
</g>
</svg>
